<?xml version="1.0" encoding="utf-8"?>
<!-- Generator: Adobe Illustrator 25.0.0, SVG Export Plug-In . SVG Version: 6.00 Build 0)  -->
<svg version="1.1" id="katman_1" xmlns="http://www.w3.org/2000/svg" xmlns:xlink="http://www.w3.org/1999/xlink" x="0px" y="0px"
	 viewBox="0 0 1800 1344" xml:space="preserve">
<style type="text/css">
	.st0{fill-rule:evenodd;clip-rule:evenodd;fill:#E3ECF5;}
	.st1{fill:#FFFFFF;stroke:#C7C6C6;stroke-width:0.8678;stroke-miterlimit:10;}
	.st2{fill:#020203;}
	.st3{font-family:'Roboto-Bold';}
	.st4{font-size:63.6709px;}
	.st5{fill-rule:evenodd;clip-rule:evenodd;fill:#181616;}
	.st6{fill:#181616;}
	.st7{fill:#FFFFFF;}
	.st8{fill-rule:evenodd;clip-rule:evenodd;fill:#FFFFFF;}
</style>
<rect class="st0" width="1800" height="1344"/>
<g>
	<g>
		<path class="st6" d="M1505.9,954.1H294.1c-31.3,0-56.7-25.4-56.7-56.7l0-89.6c0-31.3,25.4-56.7,56.7-56.7h1211.8
			c31.3,0,56.7,25.4,56.7,56.7v89.6C1562.6,928.8,1537.2,954.1,1505.9,954.1z"/>
		<text transform="matrix(1 0 0 1 674.4307 874.1683)" class="st7 st3 st4">Sign in with Github</text>
		<g id="XMLID_52_">
			<g>
				<path id="XMLID_83_" class="st8" d="M378.1,792.4c-36.8,0-66.7,29.8-66.7,66.7c0,29.5,19.1,54.4,45.6,63.3
					c3.3,0.6,4.6-1.4,4.6-3.2c0-1.6-0.1-6.8-0.1-12.4c-18.5,4-22.5-7.9-22.5-7.9c-3-7.7-7.4-9.8-7.4-9.8c-6-4.1,0.5-4.1,0.5-4.1
					c6.7,0.5,10.2,6.9,10.2,6.9c5.9,10.2,15.6,7.2,19.4,5.5c0.6-4.3,2.3-7.2,4.2-8.9c-14.8-1.7-30.4-7.4-30.4-32.9
					c0-7.3,2.6-13.2,6.9-17.9c-0.7-1.7-3-8.5,0.6-17.6c0,0,5.6-1.8,18.3,6.8c5.3-1.5,11-2.2,16.7-2.2c5.7,0,11.4,0.8,16.7,2.2
					c12.7-8.6,18.3-6.8,18.3-6.8c3.6,9.2,1.3,16,0.7,17.6c4.3,4.7,6.9,10.6,6.9,17.9c0,25.6-15.6,31.2-30.4,32.9
					c2.4,2.1,4.5,6.1,4.5,12.3c0,8.9-0.1,16.1-0.1,18.3c0,1.8,1.2,3.9,4.6,3.2c26.5-8.8,45.5-33.8,45.5-63.2
					C444.8,822.3,414.9,792.4,378.1,792.4z"/>
				<path id="XMLID_82_" class="st7" d="M336.7,888.2c-0.1,0.3-0.7,0.4-1.1,0.2c-0.5-0.2-0.8-0.7-0.6-1c0.1-0.3,0.7-0.4,1.1-0.2
					C336.6,887.4,336.8,887.8,336.7,888.2z"/>
				<path id="XMLID_81_" class="st7" d="M339.4,891.2c-0.3,0.3-0.9,0.2-1.4-0.3c-0.4-0.5-0.5-1.1-0.2-1.4c0.3-0.3,0.9-0.2,1.4,0.3
					C339.6,890.2,339.7,890.9,339.4,891.2z"/>
				<path id="XMLID_80_" class="st7" d="M342,895c-0.4,0.3-1.1,0-1.5-0.6c-0.4-0.6-0.4-1.3,0-1.6c0.4-0.3,1.1,0,1.5,0.6
					C342.4,894,342.4,894.7,342,895z"/>
				<path id="XMLID_79_" class="st7" d="M345.6,898.7c-0.4,0.4-1.1,0.3-1.7-0.3c-0.6-0.5-0.7-1.3-0.4-1.7c0.4-0.4,1.2-0.3,1.7,0.3
					C345.8,897.5,346,898.3,345.6,898.7z"/>
				<path id="XMLID_78_" class="st7" d="M350.6,900.9c-0.2,0.5-0.9,0.8-1.7,0.5c-0.8-0.2-1.2-0.8-1.1-1.4c0.2-0.5,0.9-0.8,1.7-0.5
					C350.2,899.7,350.7,900.3,350.6,900.9z"/>
				<path id="XMLID_77_" class="st7" d="M356,901.3c0,0.5-0.6,1-1.4,1c-0.8,0-1.4-0.4-1.5-1c0-0.6,0.6-1,1.4-1
					C355.4,900.3,356,900.7,356,901.3z"/>
				<path id="XMLID_76_" class="st7" d="M361.1,900.4c0.1,0.5-0.5,1.1-1.2,1.2c-0.8,0.1-1.5-0.2-1.6-0.7c-0.1-0.5,0.5-1.1,1.2-1.2
					C360.3,899.5,361,899.9,361.1,900.4z"/>
			</g>
		</g>
	</g>
</g>
</svg>
